<svg width="12" height="14" viewBox="0 0 12 14" fill="none" xmlns="http://www.w3.org/2000/svg">
<rect width="12" height="14" fill="#E5E5E5"/>
<g id="RESULT_SAVED" clip-path="url(#clip0_891_3857)">
<rect width="1280" height="1028" transform="translate(-1122 -30)" fill="white"/>
<g id="header">
<rect id="back__COLOR:primary-header" x="-1122" y="-30" width="1280" height="74" fill="white"/>
<g id="profile">
<rect id="Rectangle 1428" opacity="0.2" x="-11" y="-8" width="98" height="30" rx="15" stroke="#AAAAAA" stroke-width="2"/>
<path id="icon__COLOR:icon-main" fill-rule="evenodd" clip-rule="evenodd" d="M8 4C8 5.10457 7.10457 6 6 6C4.89543 6 4 5.10457 4 4C4 2.89543 4.89543 2 6 2C7.10457 2 8 2.89543 8 4ZM10 4C10 6.20914 8.20914 8 6 8C3.79086 8 2 6.20914 2 4C2 1.79086 3.79086 0 6 0C8.20914 0 10 1.79086 10 4ZM4 9C1.79086 9 0 10.7909 0 13V14H2V13C2 11.8954 2.89543 11 4 11H8C9.10457 11 10 11.8954 10 13V14H12V13C12 10.7909 10.2091 9 8 9H4Z" fill="black"/>
</g>
</g>
</g>
<defs>
<clipPath id="clip0_891_3857">
<rect width="1280" height="1028" fill="white" transform="translate(-1122 -30)"/>
</clipPath>
</defs>
</svg>
